<?xml version="1.0" encoding="utf-8"?>
<svg version="1.1" xmlns:xlink="http://www.w3.org/1999/xlink" width="24px" height="20px" xmlns="http://www.w3.org/2000/svg">
  <g transform="matrix(1 0 0 1 -40 -30 )">
    <path d="M 23.703125 16.296875  C 23.9010416666667 16.4947916666667  24 16.7291666666667  24 17  L 24 19  C 24 19.2708333333333  23.9010416666667 19.5052083333333  23.703125 19.703125  C 23.5052083333333 19.9010416666667  23.2708333333333 20  23 20  L 1 20  C 0.729166666666667 20  0.494791666666667 19.9010416666667  0.296875 19.703125  C 0.0989583333333333 19.5052083333333  0 19.2708333333333  0 19  L 0 17  C 0 16.7291666666667  0.0989583333333333 16.4947916666667  0.296875 16.296875  C 0.494791666666667 16.0989583333333  0.729166666666667 16  1 16  L 23 16  C 23.2708333333333 16  23.5052083333333 16.0989583333333  23.703125 16.296875  Z M 23.703125 8.296875  C 23.9010416666667 8.49479166666667  24 8.72916666666667  24 9  L 24 11  C 24 11.2708333333333  23.9010416666667 11.5052083333333  23.703125 11.703125  C 23.5052083333333 11.9010416666667  23.2708333333333 12  23 12  L 1 12  C 0.729166666666667 12  0.494791666666667 11.9010416666667  0.296875 11.703125  C 0.0989583333333333 11.5052083333333  0 11.2708333333333  0 11  L 0 9  C 0 8.72916666666667  0.0989583333333333 8.49479166666667  0.296875 8.296875  C 0.494791666666667 8.09895833333334  0.729166666666667 8  1 8  L 23 8  C 23.2708333333333 8  23.5052083333333 8.09895833333334  23.703125 8.296875  Z M 23.703125 0.296875000000001  C 23.9010416666667 0.494791666666665  24 0.729166666666665  24 1  L 24 3  C 24 3.27083333333333  23.9010416666667 3.50520833333333  23.703125 3.703125  C 23.5052083333333 3.90104166666666  23.2708333333333 4  23 4  L 1 4  C 0.729166666666667 4  0.494791666666667 3.90104166666666  0.296875 3.703125  C 0.0989583333333333 3.50520833333333  0 3.27083333333333  0 3  L 0 1  C 0 0.729166666666665  0.0989583333333333 0.494791666666665  0.296875 0.296875000000001  C 0.494791666666667 0.0989583333333321  0.729166666666667 0  1 0  L 23 0  C 23.2708333333333 0  23.5052083333333 0.0989583333333321  23.703125 0.296875000000001  Z " fill-rule="nonzero" fill="#000000" stroke="none" transform="matrix(1 0 0 1 40 30 )" />
  </g>
</svg>